# xmcd CD database file
# Copyright (C) 1995-1998 Ti Kan
#
# Track frame offsets:
#	150
#	24297
#	40936
#	55453
#	81615
#	100487
#	125674
#	142194
#	162891
#	186835
#	209275
#	229789
#	247799
#	267496
#	294795
#
# Disc length: 4051 seconds
#
# Revision: 11
# Processed by: cddbd v1.5.1PL0 Copyright (c) Steve Scherf et al.
# Submitted via: CDex 1.3.1JRelease
#
DISCID=db0fd10f
DTITLE=???? - LOVE 20th Anniversary Best Sellection
DYEAR=2000
DGENRE=Rock
TTITLE0=True Love Story (with Hiromi Go)
TTITLE1=????????
TTITLE2=December Morn (with Richard Carpenter)
TTITLE3=???????Angel?
TTITLE4=????????
TTITLE5=??????????Missing You?
TTITLE6=??? (with Shinji Harada)
TTITLE7=????
TTITLE8=I'll Be There For You (with Robbie Nevil)
TTITLE9=20th Party
TTITLE10=SWEET MEMORIES
TTITLE11=Christmas Turned Blue (with Richard Carpenter)
TTITLE12=???????
TTITLE13=?????KISS????? (with Hiromi Go)
TTITLE14=Twinkle Star, Shining Star (with Sayaka)
EXTD=YEAR: 2000 ID3G:  17
EXTT0=
EXTT1=
EXTT2=
EXTT3=
EXTT4=
EXTT5=
EXTT6=
EXTT7=
EXTT8=
EXTT9=
EXTT10=
EXTT11=
EXTT12=
EXTT13=
EXTT14=
PLAYORDER=
